:FULLY-SPECIFIED
:FORCE-ALL-JOINTS-BE-3DOF
:DEGREES
883
root 3.85132 16.5379 30.5304 -10.8181 23.5857 -0.564007
lfemur -15.7702 19.9928 -19.1006
ltibia 40.4476 -0 0
lfoot -13.0477 -0.45508 -0.000882812
ltoes -1.24122 0 0
rfemur -80.1751 -24.4993 36.3284
rtibia 100.642 -0 0
rfoot 18.6788 25.6735 -0.0117431
rtoes -9.17391 0 0
lowerback 15.0117 -3.97229 -6.72682
upperback 4.96446 -6.24833 -2.40206
thorax -2.65104 -3.09411 2.27247
lowerneck -7.69355 -3.25595 1.70777
upperneck 4.57644 -4.85006 4.93029
head 2.90535 -2.19697 1.06224
lclavicle 3.02815e-14 -1.37824e-14 -1.61353e-30
lhumerus -33.2358 -40.4477 88.3775
lradius 60.8202 -0 0
lwrist 19.662 0 0
lhand 25.6199 11.7118 0.00108469
lfingers 7.12502 -0 0
lthumb 49.7275 33.0587 -0.00420392
rclavicle 3.02815e-14 -1.37824e-14 -1.61353e-30
rhumerus -49.162 -29.3398 -47.2231
rradius 72.4158 -0 0
rwrist -23.211 0 0
rhand -46.828 -53.7631 0.181965
rfingers 7.12502 -0 0
rthumb -19.1901 -19.5367 -1.94305
884
root 3.82769 16.5533 30.6 -10.1956 24.4822 -1.08998
lfemur -16.7086 21.5222 -18.6957
ltibia 40.77 -0 0
lfoot -13.0942 0.63271 -0.000882812
ltoes -1.17994 0 0
rfemur -78.4494 -25.7318 35.0494
rtibia 103.629 -0 0
rfoot 19.4859 24.8397 -0.0117431
rtoes -6.43743 0 0
lowerback 14.2629 -4.19738 -6.4968
upperback 4.64595 -6.46641 -2.1816
thorax -2.56926 -3.20256 2.35983
lowerneck -7.76829 -3.44859 1.55829
upperneck 4.87987 -5.11552 4.98935
head 3.0351 -2.32033 1.0919
lclavicle 8.48147e-15 -1.80232e-14 -1.61353e-30
lhumerus -33.8301 -41.3176 89.8001
lradius 60.4662 -0 0
lwrist 18.3359 0 0
lhand 26.4402 11.7875 0.00108469
lfingers 7.12502 -0 0
lthumb 50.4777 32.7376 -0.00420392
rclavicle 8.48147e-15 -1.80232e-14 -1.61353e-30
rhumerus -49.1504 -29.0566 -48.6654
rradius 74.7695 -0 0
rwrist -23.4925 0 0
rhand -48.5048 -59.9943 0.181965
rfingers 7.12502 -0 0
rthumb -21.5024 37.7107 -1.94305
885
root 3.80407 16.5687 30.6695 -9.57769 25.3839 358.391
lfemur -17.6457 23.0577 -18.3135
ltibia 41.0923 0 0
lfoot -13.1407 1.7204 0
ltoes -1.11867 0 0
rfemur -76.6751 -26.9284 33.7158
rtibia 106.616 0 0
rfoot 20.2929 24.0061 0
rtoes -3.70094 0 0
lowerback 13.5131 -4.41943 -6.2638
upperback 4.32647 -6.68327 -1.95983
thorax -2.48764 -3.31114 2.44704
lowerneck -7.84255 -3.64141 1.40903
upperneck 5.18316 -5.38128 5.04702
head 3.1648 -2.44375 1.12128
lclavicle -1.33186e-14 -2.22639e-14 0
lhumerus -34.4615 -42.1759 91.2542
lradius 60.1121 0 0
lwrist 17.0098 0 0
lhand 27.2604 11.8633 0
lfingers 7.12502 0 0
lthumb 51.228 32.4166 0
rclavicle -1.33186e-14 -2.22639e-14 0
rhumerus -49.1469 -28.7732 -50.1037
rradius 77.1232 0 0
rwrist -23.7741 0 0
rhand -50.1716 -66.2227 0
rfingers 7.12502 0 0
rthumb -22.7538 -985.099 0
886
root 3.78689 16.5645 30.7459 -8.93187 25.9714 -1.68287
lfemur -18.4455 24.0447 -18.3566
ltibia 41.4116 -0 0
lfoot -13.4333 1.38621 0.00341423
ltoes -0.971211 0 0
rfemur -73.5287 -27.7947 31.3843
rtibia 107.741 -0 0
rfoot 19.9413 22.2904 0.0210862
rtoes -3.76814 0 0
lowerback 12.8176 -4.51444 -6.33634
upperback 4.02933 -6.78304 -1.88062
thorax -2.39372 -3.36012 2.52857
lowerneck -7.81411 -3.87158 1.2267
upperneck 5.18622 -5.67383 5.10317
head 3.17654 -2.59093 1.15619
lclavicle -2.31087e-14 -1.84472e-14 1.30431e-30
lhumerus -35.7071 -42.7041 92.7169
lradius 60.4517 -0 0
lwrist 16.3238 0 0
lhand 27.2704 11.8492 -4.94853e-06
lfingers 7.12502 -0 0
lthumb 51.2371 32.3973 -6.14412e-06
rclavicle -2.31087e-14 -1.84472e-14 1.30431e-30
rhumerus -48.7988 -27.3105 -52.5288
rradius 79.7756 -0 0
rwrist -23.4253 0 0
rhand -48.9393 -64.7915 0.0616562
rfingers 7.12502 -0 0
rthumb -22.1595 130.215 1.69851
887
root 3.76971 16.5604 30.8223 -8.28362 26.5596 -1.74972
lfemur -19.2524 25.031 -18.4152
ltibia 41.7309 -0 0
lfoot -13.726 1.05198 0.00512149
ltoes -0.823751 0 0
rfemur -70.3211 -28.5449 28.9846
rtibia 108.866 -0 0
rfoot 19.5891 20.5746 0.0316342
rtoes -3.83535 0 0
lowerback 12.1221 -4.61034 -6.40774
upperback 3.73198 -6.8824 -1.80088
thorax -2.29987 -3.40924 2.61002
lowerneck -7.78492 -4.10166 1.0442
upperneck 5.18899 -5.96639 5.15933
head 3.18818 -2.73811 1.19108
lclavicle -3.28989e-14 -1.46306e-14 1.95647e-30
lhumerus -36.9812 -43.2084 94.2073
lradius 60.7912 -0 0
lwrist 15.6378 0 0
lhand 27.2805 11.8351 -7.42279e-06
lfingers 7.12502 -0 0
lthumb 51.2462 32.378 -9.21618e-06
rclavicle -3.28989e-14 -1.46306e-14 1.95647e-30
rhumerus -48.5243 -25.8361 -54.913
rradius 82.4281 -0 0
rwrist -23.0765 0 0
rhand -47.7057 -63.3593 0.0925011
rfingers 7.12502 -0 0
rthumb -20.6912 165.578 2.74038
888
root 3.75254 16.5562 30.8986 -7.63276 27.1484 -1.80942
lfemur -20.0671 26.0165 -18.4898
ltibia 42.0501 -0 0
lfoot -14.0187 0.717753 0.00512149
ltoes -0.676292 0 0
rfemur -67.0589 -29.1746 26.5246
rtibia 109.991 -0 0
rfoot 19.2369 18.8587 0.0316342
rtoes -3.90255 0 0
lowerback 11.4266 -4.70709 -6.47798
upperback 3.43443 -6.98135 -1.7206
thorax -2.20608 -3.45849 2.6914
lowerneck -7.75499 -4.33166 0.861529
upperneck 5.19147 -6.25895 5.2155
head 3.19974 -2.88531 1.22594
lclavicle -4.2689e-14 -1.08139e-14 1.95647e-30
lhumerus -38.2835 -43.688 95.725
lradius 61.1308 -0 0
lwrist 14.9518 0 0
lhand 27.2905 11.8209 -7.42279e-06
lfingers 7.12502 -0 0
lthumb 51.2554 32.3587 -9.21618e-06
rclavicle -4.2689e-14 -1.08139e-14 1.95647e-30
rhumerus -48.3206 -24.3529 -57.2608
rradius 85.0805 -0 0
rwrist -22.7277 0 0
rhand -46.4719 -61.9267 0.0925011
rfingers 7.12502 -0 0
rthumb -18.8896 -159.031 2.74038
889
root 3.73536 16.5521 30.975 -6.97911 27.7378 -1.86189
lfemur -20.8903 27.0009 -18.5807
ltibia 42.3694 -0 0
lfoot -14.3114 0.383532 0.00341423
ltoes -0.528832 0 0
rfemur -63.7504 -29.6797 24.0136
rtibia 111.116 -0 0
rfoot 18.8847 17.1429 0.0210862
rtoes -3.96976 0 0
lowerback 10.7311 -4.80469 -6.54704
upperback 3.13668 -7.07989 -1.63978
thorax -2.11236 -3.50787 2.7727
lowerneck -7.72431 -4.56155 0.67868
upperneck 5.19366 -6.55152 5.2717
head 3.21122 -3.0325 1.26077
lclavicle -5.24792e-14 -6.99722e-15 1.30431e-30
lhumerus -39.6132 -44.1423 97.2695
lradius 61.4703 -0 0
lwrist 14.2658 0 0
lhand 27.3006 11.8068 -4.94853e-06
lfingers 7.12502 -0 0
lthumb 51.2645 32.3394 -6.14412e-06
rclavicle -5.24792e-14 -6.99722e-15 1.30431e-30
rhumerus -48.1853 -22.8634 -59.5764
rradius 87.733 -0 0
rwrist -22.3789 0 0
rhand -45.2383 -60.4945 0.0616562
rfingers 7.12502 -0 0
rthumb -17.4213 -123.668 1.69851
